<svg width="163" height="177" viewBox="0 0 163 177" fill="none" xmlns="http://www.w3.org/2000/svg">
<g opacity="0.8" clip-path="url(#clip0_13053_2191)">
<path d="M66.2476 18.9636C65.2391 19.5459 64.0456 19.2254 63.4627 18.2158C62.8798 17.2062 63.199 16.0123 64.2075 15.4301C65.216 14.8478 66.4095 15.1683 66.9924 16.1779C67.5753 17.1875 67.1721 18.4299 66.2476 18.9636Z" fill="#FFCF2D"/>
<path d="M74.9422 34.0232C73.9337 34.6054 72.7402 34.2849 72.1573 33.2754C71.5744 32.2658 71.8937 31.0719 72.9022 30.4896C73.9107 29.9074 75.1042 30.2279 75.6871 31.2375C76.2214 32.1629 75.8667 33.4894 74.9422 34.0232Z" fill="#FFCF2D"/>
<path d="M83.5883 48.9988C82.5798 49.581 81.3863 49.2605 80.8034 48.2509C80.2205 47.2414 80.5397 46.0475 81.5482 45.4652C82.5567 44.883 83.7503 45.2035 84.3331 46.213C84.916 47.2226 84.5128 48.465 83.5883 48.9988Z" fill="#FFCF2D"/>
<path d="M92.2829 64.0583C91.2744 64.6406 90.0809 64.3201 89.498 63.3105C88.9151 62.3009 89.2344 61.1071 90.2429 60.5248C91.2514 59.9425 92.4449 60.263 93.0278 61.2726C93.6106 62.2822 93.2074 63.5246 92.2829 64.0583Z" fill="#FFCF2D"/>
<path d="M100.978 79.1179C99.9691 79.7001 98.7756 79.3797 98.1927 78.3701C97.6098 77.3605 97.929 76.1666 98.9375 75.5844C99.946 75.0021 101.14 75.3226 101.722 76.3322C102.257 77.2576 101.902 78.5842 100.978 79.1179Z" fill="#FFCF2D"/>
<path d="M109.672 94.1775C108.664 94.7597 107.47 94.4392 106.887 93.4297C106.304 92.4201 106.624 91.2262 107.632 90.6439C108.641 90.0617 109.834 90.3822 110.417 91.3918C111 92.4013 110.597 93.6437 109.672 94.1775Z" fill="#FFCF2D"/>
<path d="M118.318 109.153C117.31 109.735 116.116 109.415 115.533 108.405C114.951 107.396 115.27 106.202 116.278 105.62C117.287 105.037 118.48 105.358 119.063 106.367C119.646 107.377 119.243 108.619 118.318 109.153Z" fill="#FFCF2D"/>
<path d="M127.013 124.213C126.004 124.795 124.811 124.474 124.228 123.465C123.645 122.455 123.964 121.261 124.973 120.679C125.981 120.097 127.175 120.417 127.758 121.427C128.341 122.436 127.937 123.679 127.013 124.213Z" fill="#FFCF2D"/>
<path d="M135.708 139.272C134.699 139.854 133.506 139.534 132.923 138.524C132.34 137.515 132.659 136.321 133.667 135.739C134.676 135.156 135.87 135.477 136.452 136.486C136.987 137.412 136.632 138.738 135.708 139.272Z" fill="#FFCF2D"/>
<path d="M53.7257 26.1931C52.7172 26.7754 51.5236 26.4549 50.9407 25.4453C50.3579 24.4357 50.6771 23.2418 51.6856 22.6596C52.6941 22.0773 53.8876 22.3978 54.4705 23.4074C55.0534 24.417 54.7341 25.6108 53.7257 26.1931Z" fill="#FFCF2D"/>
<path d="M62.4203 41.2527C61.4118 41.8349 60.2182 41.5144 59.6354 40.5049C59.0525 39.4953 59.3717 38.3014 60.3802 37.7191C61.3887 37.1369 62.5822 37.4574 63.1651 38.467C63.6994 39.3924 63.4288 40.6704 62.4203 41.2527Z" fill="#FFCF2D"/>
<path d="M71.0663 56.2283C70.0579 56.8105 68.8643 56.49 68.2814 55.4804C67.6986 54.4709 68.0178 53.277 69.0263 52.6947C70.0348 52.1125 71.2283 52.433 71.8112 53.4425C72.3941 54.4521 72.0748 55.646 71.0663 56.2283Z" fill="#FFCF2D"/>
<path d="M79.761 71.2878C78.7525 71.8701 77.559 71.5496 76.9761 70.54C76.3932 69.5304 76.7124 68.3366 77.7209 67.7543C78.7294 67.172 79.9229 67.4925 80.5058 68.5021C81.0887 69.5117 80.7695 70.7056 79.761 71.2878Z" fill="#FFCF2D"/>
<path d="M88.4556 86.3474C87.4471 86.9296 86.2536 86.6092 85.6707 85.5996C85.0878 84.59 85.4071 83.3961 86.4156 82.8139C87.424 82.2316 88.6176 82.5521 89.2005 83.5617C89.7348 84.4871 89.4641 85.7651 88.4556 86.3474Z" fill="#FFCF2D"/>
<path d="M97.1502 101.407C96.1417 101.989 94.9482 101.669 94.3653 100.659C93.7825 99.6496 94.1017 98.4557 95.1102 97.8734C96.1187 97.2912 97.3122 97.6117 97.8951 98.6213C98.4779 99.6308 98.1587 100.825 97.1502 101.407Z" fill="#FFCF2D"/>
<path d="M105.796 116.383C104.788 116.965 103.594 116.644 103.011 115.635C102.429 114.625 102.748 113.431 103.756 112.849C104.765 112.267 105.958 112.587 106.541 113.597C107.124 114.606 106.805 115.8 105.796 116.383Z" fill="#FFCF2D"/>
<path d="M114.491 131.442C113.482 132.024 112.289 131.704 111.706 130.694C111.123 129.685 111.442 128.491 112.451 127.909C113.459 127.326 114.653 127.647 115.236 128.656C115.819 129.666 115.499 130.86 114.491 131.442Z" fill="#FFCF2D"/>
<path d="M123.186 146.502C122.177 147.084 120.984 146.763 120.401 145.754C119.818 144.744 120.137 143.55 121.146 142.968C122.154 142.386 123.348 142.706 123.93 143.716C124.465 144.641 124.194 145.919 123.186 146.502Z" fill="#FFCF2D"/>
<path d="M91.2079 4.55247C90.1994 5.13473 89.0059 4.81423 88.423 3.80465C87.8401 2.79508 88.1593 1.6012 89.1678 1.01895C90.1763 0.436691 91.3698 0.757184 91.9527 1.76676C92.5356 2.77634 92.2164 3.97022 91.2079 4.55247Z" fill="#FFCF2D"/>
<path d="M99.9025 19.612C98.894 20.1943 97.7005 19.8738 97.1176 18.8642C96.5347 17.8546 96.854 16.6608 97.8625 16.0785C98.8709 15.4963 100.064 15.8168 100.647 16.8263C101.182 17.7518 100.911 19.0298 99.9025 19.612Z" fill="#FFCF2D"/>
<path d="M108.549 34.5876C107.54 35.1699 106.347 34.8494 105.764 33.8398C105.181 32.8302 105.5 31.6364 106.509 31.0541C107.517 30.4718 108.759 30.8765 109.293 31.8019C109.876 32.8115 109.557 34.0054 108.549 34.5876Z" fill="#FFCF2D"/>
<path d="M117.243 49.6472C116.235 50.2295 115.041 49.909 114.458 48.8994C113.875 47.8898 114.195 46.6959 115.203 46.1137C116.212 45.5314 117.454 45.936 117.988 46.8615C118.522 47.7869 118.252 49.0649 117.243 49.6472Z" fill="#FFCF2D"/>
<path d="M125.938 64.7068C124.929 65.289 123.736 64.9685 123.153 63.9589C122.57 62.9494 122.889 61.7555 123.898 61.1732C124.906 60.591 126.1 60.9115 126.683 61.9211C127.217 62.8465 126.946 64.1245 125.938 64.7068Z" fill="#FFCF2D"/>
<path d="M134.633 79.7663C133.624 80.3486 132.43 80.0281 131.848 79.0185C131.265 78.0089 131.584 76.8151 132.592 76.2328C133.601 75.6506 134.794 75.971 135.377 76.9806C135.96 77.9902 135.641 79.1841 134.633 79.7663Z" fill="#FFCF2D"/>
<path d="M143.279 94.7419C142.27 95.3242 141.077 95.0037 140.494 93.9941C139.911 92.9845 140.23 91.7907 141.238 91.2084C142.247 90.6261 143.441 90.9466 144.023 91.9562C144.606 92.9658 144.287 94.1597 143.279 94.7419Z" fill="#FFCF2D"/>
<path d="M151.973 109.801C150.965 110.384 149.771 110.063 149.188 109.054C148.605 108.044 148.925 106.85 149.933 106.268C150.942 105.686 152.135 106.006 152.718 107.016C153.301 108.025 152.982 109.219 151.973 109.801Z" fill="#FFCF2D"/>
<path d="M160.668 124.861C159.659 125.443 158.466 125.123 157.883 124.113C157.3 123.104 157.619 121.91 158.628 121.328C159.636 120.745 160.83 121.066 161.413 122.075C161.947 123.001 161.676 124.279 160.668 124.861Z" fill="#FFCF2D"/>
<path d="M78.6857 11.7829C77.6772 12.3652 76.4837 12.0447 75.9008 11.0351C75.3179 10.0255 75.7212 8.78315 76.6456 8.24941C77.6541 7.66716 78.8477 7.98765 79.4305 8.99723C80.0134 10.0068 79.6942 11.2007 78.6857 11.7829Z" fill="#FFCF2D"/>
<path d="M87.3803 26.8425C86.3719 27.4248 85.1783 27.1043 84.5954 26.0947C84.0126 25.0851 84.3318 23.8912 85.3403 23.309C86.3488 22.7267 87.5423 23.0472 88.1252 24.0568C88.6595 24.9822 88.3888 26.2603 87.3803 26.8425Z" fill="#FFCF2D"/>
<path d="M96.0264 41.8171C95.0179 42.3994 93.8244 42.0789 93.2415 41.0693C92.6586 40.0597 92.9778 38.8658 93.9863 38.2836C94.9948 37.7013 96.1883 38.0218 96.7712 39.0314C97.3541 40.041 97.0349 41.2349 96.0264 41.8171Z" fill="#FFCF2D"/>
<path d="M104.721 56.8767C103.713 57.4589 102.519 57.1385 101.936 56.1289C101.353 55.1193 101.672 53.9254 102.681 53.3432C103.689 52.7609 104.883 53.0814 105.466 54.091C106.049 55.1006 105.73 56.2944 104.721 56.8767Z" fill="#FFCF2D"/>
<path d="M113.416 71.9363C112.407 72.5185 111.214 72.198 110.631 71.1884C110.048 70.1789 110.367 68.985 111.376 68.4027C112.384 67.8205 113.578 68.141 114.161 69.1505C114.695 70.076 114.424 71.354 113.416 71.9363Z" fill="#FFCF2D"/>
<path d="M122.11 86.9958C121.102 87.5781 119.908 87.2576 119.325 86.248C118.743 85.2384 119.062 84.0446 120.07 83.4623C121.079 82.8801 122.272 83.2005 122.855 84.2101C123.438 85.2197 123.119 86.4136 122.11 86.9958Z" fill="#FFCF2D"/>
<path d="M130.756 101.971C129.748 102.554 128.554 102.233 127.971 101.224C127.389 100.214 127.708 99.0201 128.716 98.4379C129.725 97.8556 130.918 98.1761 131.501 99.1857C132.084 100.195 131.765 101.389 130.756 101.971Z" fill="#FFCF2D"/>
<path d="M139.451 117.031C138.443 117.613 137.249 117.293 136.666 116.283C136.083 115.274 136.402 114.08 137.411 113.497C138.419 112.915 139.613 113.236 140.196 114.245C140.779 115.255 140.46 116.449 139.451 117.031Z" fill="#FFCF2D"/>
<path d="M148.146 132.091C147.137 132.673 145.944 132.352 145.361 131.343C144.778 130.333 145.097 129.139 146.106 128.557C147.114 127.975 148.308 128.295 148.89 129.305C149.425 130.23 149.154 131.508 148.146 132.091Z" fill="#FFCF2D"/>
<path d="M41.2873 33.3747C40.2788 33.957 39.0853 33.6365 38.5024 32.6269C37.9195 31.6173 38.2388 30.4235 39.2472 29.8412C40.2557 29.259 41.4493 29.5794 42.0322 30.589C42.615 31.5986 42.2118 32.841 41.2873 33.3747Z" fill="#FFCF2D"/>
<path d="M49.982 48.4343C48.9735 49.0166 47.7799 48.6961 47.1971 47.6865C46.6142 46.6769 46.9334 45.483 47.9419 44.9008C48.9504 44.3185 50.1439 44.639 50.7268 45.6486C51.2611 46.574 50.9064 47.9006 49.982 48.4343Z" fill="#FFCF2D"/>
<path d="M58.628 63.4099C57.6195 63.9921 56.426 63.6717 55.8431 62.6621C55.2602 61.6525 55.5794 60.4586 56.5879 59.8764C57.5964 59.2941 58.79 59.6146 59.3729 60.6242C59.9557 61.6338 59.5525 62.8762 58.628 63.4099Z" fill="#FFCF2D"/>
<path d="M67.3227 78.4695C66.3142 79.0517 65.1206 78.7312 64.5378 77.7216C63.9549 76.7121 64.2741 75.5182 65.2826 74.9359C66.2911 74.3537 67.4846 74.6742 68.0675 75.6838C68.6504 76.6933 68.2471 77.9357 67.3227 78.4695Z" fill="#FFCF2D"/>
<path d="M76.0173 93.529C75.0088 94.1113 73.8153 93.7908 73.2324 92.7812C72.6495 91.7716 72.9687 90.5778 73.9772 89.9955C74.9857 89.4133 76.1793 89.7337 76.7621 90.7433C77.2964 91.6688 76.9418 92.9953 76.0173 93.529Z" fill="#FFCF2D"/>
<path d="M84.7119 108.588C83.7035 109.17 82.5099 108.849 81.927 107.84C81.3442 106.83 81.6634 105.636 82.6719 105.054C83.6804 104.472 84.8739 104.792 85.4568 105.802C86.0397 106.811 85.6364 108.054 84.7119 108.588Z" fill="#FFCF2D"/>
<path d="M93.358 123.563C92.3495 124.145 91.156 123.825 90.5731 122.815C89.9902 121.806 90.3094 120.612 91.3179 120.03C92.3264 119.447 93.52 119.768 94.1028 120.778C94.6857 121.787 94.2825 123.029 93.358 123.563Z" fill="#FFCF2D"/>
<path d="M102.053 138.623C101.044 139.205 99.8506 138.885 99.2677 137.875C98.6849 136.865 99.0041 135.672 100.013 135.089C101.021 134.507 102.215 134.827 102.797 135.837C103.38 136.847 102.977 138.089 102.053 138.623Z" fill="#FFCF2D"/>
<path d="M110.747 153.682C109.739 154.265 108.545 153.944 107.962 152.935C107.38 151.925 107.699 150.731 108.707 150.149C109.716 149.567 110.909 149.887 111.492 150.897C112.026 151.822 111.672 153.149 110.747 153.682Z" fill="#FFCF2D"/>
<path d="M28.7654 40.6042C27.7569 41.1865 26.5633 40.866 25.9805 39.8564C25.3976 38.8468 25.7168 37.653 26.7253 37.0707C27.7338 36.4884 28.9273 36.8089 29.5102 37.8185C30.0931 38.8281 29.7739 40.022 28.7654 40.6042Z" fill="#FFCF2D"/>
<path d="M37.46 55.6638C36.4515 56.2461 35.258 55.9256 34.6751 54.916C34.0922 53.9064 34.4114 52.7125 35.4199 52.1303C36.4284 51.548 37.6219 51.8685 38.2048 52.8781C38.7391 53.8035 38.4685 55.0815 37.46 55.6638Z" fill="#FFCF2D"/>
<path d="M46.1061 70.6394C45.0976 71.2216 43.904 70.9011 43.3211 69.8916C42.7383 68.882 43.0575 67.6881 44.066 67.1059C45.0745 66.5236 46.268 66.8441 46.8509 67.8537C47.4338 68.8633 47.1146 70.0571 46.1061 70.6394Z" fill="#FFCF2D"/>
<path d="M52.0158 84.9511C52.5791 85.9269 53.826 86.2617 54.8007 85.699C55.7754 85.1362 56.1089 83.889 55.5455 82.9132C54.9822 81.9375 53.7353 81.6027 52.7606 82.1654C51.7859 82.7282 51.4524 83.9754 52.0158 84.9511Z" fill="#FFCF2D"/>
<path d="M63.4953 100.759C62.4868 101.341 61.2933 101.02 60.7104 100.011C60.1276 99.0011 60.4468 97.8073 61.4553 97.225C62.4638 96.6427 63.6573 96.9632 64.2402 97.9728C64.7745 98.8983 64.5038 100.176 63.4953 100.759Z" fill="#FFCF2D"/>
<path d="M72.19 115.818C71.1815 116.4 69.988 116.08 69.4051 115.07C68.8222 114.061 69.1414 112.867 70.1499 112.285C71.1584 111.702 72.3519 112.023 72.9348 113.032C73.5177 114.042 73.1985 115.236 72.19 115.818Z" fill="#FFCF2D"/>
<path d="M80.836 130.793C79.8275 131.375 78.634 131.054 78.0511 130.045C77.4683 129.035 77.7875 127.841 78.796 127.259C79.8045 126.677 80.998 126.997 81.5809 128.007C82.1637 129.017 81.8445 130.21 80.836 130.793Z" fill="#FFCF2D"/>
<path d="M86.7458 145.104C87.3091 146.08 88.556 146.415 89.5307 145.852C90.5054 145.29 90.8389 144.042 90.2755 143.067C89.7121 142.091 88.4653 141.756 87.4906 142.319C86.5159 142.881 86.1824 144.129 86.7458 145.104Z" fill="#FFCF2D"/>
<path d="M98.2253 160.912C97.2168 161.494 96.0233 161.174 95.4404 160.164C94.8575 159.154 95.1767 157.961 96.1852 157.378C97.1937 156.796 98.3873 157.117 98.9701 158.126C99.5045 159.052 99.2338 160.33 98.2253 160.912Z" fill="#FFCF2D"/>
<path d="M16.243 47.8337C15.2345 48.416 14.0409 48.0955 13.458 47.0859C12.8752 46.0763 13.1944 44.8825 14.2029 44.3002C15.2114 43.7179 16.4049 44.0384 16.9878 45.048C17.5707 46.0576 17.2514 47.2515 16.243 47.8337Z" fill="#FFCF2D"/>
<path d="M24.9376 62.8933C23.9291 63.4755 22.7356 63.1551 22.1527 62.1455C21.5698 61.1359 21.889 59.942 22.8975 59.3598C23.906 58.7775 25.0995 59.098 25.6824 60.1076C26.2167 61.033 25.9461 62.311 24.9376 62.8933Z" fill="#FFCF2D"/>
<path d="M33.5836 77.8689C32.5752 78.4511 31.3816 78.1306 30.7987 77.1211C30.2159 76.1115 30.5351 74.9176 31.5436 74.3354C32.5521 73.7531 33.7456 74.0736 34.3285 75.0832C34.9114 76.0927 34.5921 77.2866 33.5836 77.8689Z" fill="#FFCF2D"/>
<path d="M42.2783 92.9285C41.2698 93.5107 40.0763 93.1902 39.4934 92.1806C38.9105 91.1711 39.2297 89.9772 40.2382 89.3949C41.2467 88.8127 42.4402 89.1332 43.0231 90.1427C43.606 91.1523 43.2868 92.3462 42.2783 92.9285Z" fill="#FFCF2D"/>
<path d="M50.9729 107.988C49.9644 108.57 48.7709 108.25 48.188 107.24C47.6051 106.231 47.9244 105.037 48.9329 104.454C49.9413 103.872 51.1349 104.193 51.7178 105.202C52.2521 106.128 51.9814 107.406 50.9729 107.988Z" fill="#FFCF2D"/>
<path d="M59.6676 123.048C58.6591 123.63 57.4655 123.309 56.8827 122.3C56.2998 121.29 56.619 120.096 57.6275 119.514C58.636 118.932 59.8295 119.252 60.4124 120.262C60.9953 121.271 60.6761 122.465 59.6676 123.048Z" fill="#FFCF2D"/>
<path d="M68.3136 138.023C67.3051 138.605 66.1116 138.285 65.5287 137.275C64.9458 136.266 65.2651 135.072 66.2735 134.49C67.282 133.907 68.4756 134.228 69.0585 135.237C69.6413 136.247 69.3221 137.441 68.3136 138.023Z" fill="#FFCF2D"/>
<path d="M77.0083 153.083C75.9998 153.665 74.8062 153.345 74.2234 152.335C73.6405 151.325 73.9597 150.131 74.9682 149.549C75.9767 148.967 77.1702 149.287 77.7531 150.297C78.336 151.307 78.0168 152.5 77.0083 153.083Z" fill="#FFCF2D"/>
<path d="M85.7029 168.142C84.6944 168.725 83.5009 168.404 82.918 167.395C82.3351 166.385 82.6543 165.191 83.6628 164.609C84.6713 164.027 85.8649 164.347 86.4477 165.357C86.9821 166.282 86.7114 167.56 85.7029 168.142Z" fill="#FFCF2D"/>
<path d="M3.80488 55.0154C2.79638 55.5976 1.60285 55.2771 1.01997 54.2675C0.437085 53.258 0.756297 52.0641 1.76479 51.4818C2.77329 50.8996 3.96682 51.2201 4.5497 52.2297C5.13258 53.2392 4.72933 54.4816 3.80488 55.0154Z" fill="#FFCF2D"/>
<path d="M12.4995 70.0749C11.491 70.6572 10.2975 70.3367 9.71461 69.3271C9.13173 68.3175 9.45094 67.1237 10.4594 66.5414C11.4679 65.9592 12.6615 66.2796 13.2443 67.2892C13.7787 68.2147 13.424 69.5412 12.4995 70.0749Z" fill="#FFCF2D"/>
<path d="M21.1456 85.0495C20.1371 85.6318 18.9435 85.3113 18.3607 84.3017C17.7778 83.2921 18.097 82.0983 19.1055 81.516C20.114 80.9338 21.3075 81.2543 21.8904 82.2638C22.4733 83.2734 22.07 84.5158 21.1456 85.0495Z" fill="#FFCF2D"/>
<path d="M29.8402 100.109C28.8317 100.691 27.6382 100.371 27.0553 99.3613C26.4724 98.3517 26.7916 97.1578 27.8001 96.5756C28.8086 95.9933 30.0022 96.3138 30.585 97.3234C31.1679 98.333 30.7647 99.5754 29.8402 100.109Z" fill="#FFCF2D"/>
<path d="M38.5349 115.169C37.5264 115.751 36.3328 115.43 35.7499 114.421C35.1671 113.411 35.4863 112.217 36.4948 111.635C37.5033 111.053 38.6968 111.373 39.2797 112.383C39.814 113.308 39.4593 114.635 38.5349 115.169Z" fill="#FFCF2D"/>
<path d="M47.2295 130.228C46.221 130.811 45.0275 130.49 44.4446 129.48C43.8617 128.471 44.1809 127.277 45.1894 126.695C46.1979 126.112 47.3914 126.433 47.9743 127.443C48.5572 128.452 48.1539 129.695 47.2295 130.228Z" fill="#FFCF2D"/>
<path d="M55.8756 145.204C54.8671 145.786 53.6735 145.466 53.0906 144.456C52.5078 143.446 52.827 142.253 53.8355 141.67C54.844 141.088 56.0375 141.409 56.6204 142.418C57.2033 143.428 56.8 144.67 55.8756 145.204Z" fill="#FFCF2D"/>
<path d="M64.5702 160.263C63.5617 160.846 62.3682 160.525 61.7853 159.516C61.2024 158.506 61.5216 157.312 62.5301 156.73C63.5386 156.148 64.7321 156.468 65.315 157.478C65.8979 158.487 65.4947 159.73 64.5702 160.263Z" fill="#FFCF2D"/>
<path d="M73.2648 175.323C72.2563 175.905 71.0628 175.585 70.4799 174.575C69.897 173.566 70.2163 172.372 71.2248 171.789C72.2333 171.207 73.4268 171.528 74.0097 172.537C74.544 173.463 74.1893 174.789 73.2648 175.323Z" fill="#FFCF2D"/>
</g>
<defs>
<clipPath id="clip0_13053_2191">
<rect width="143" height="105" fill="white" transform="translate(90.9327) rotate(60)"/>
</clipPath>
</defs>
</svg>
