<svg width="85" height="85" viewBox="0 0 85 85" fill="none" xmlns="http://www.w3.org/2000/svg">
<g opacity="0.2">
<path d="M56.9323 10.555L56.9323 -2.36722e-06L84.9989 -4.82088e-06L84.9989 28.0666L74.5239 28.0666L74.5239 10.555L56.9323 10.555Z" fill="#FFCF2D"/>
<path d="M37.9826 29.5061L37.9826 19.0311L66.0492 19.0311L66.0492 47.0178L55.4942 47.0178L55.4942 29.5061L37.9826 29.5061Z" fill="#FFCF2D"/>
<path d="M19.0313 48.5374L19.0313 37.9824L47.0179 37.9824L47.0179 66.049L36.5429 66.049L36.5429 48.5374L19.0313 48.5374Z" fill="#FFCF2D"/>
<path d="M1.15398e-05 67.4886L1.0617e-05 56.9336L28.0666 56.9336L28.0666 85.0002L17.5116 85.0002L17.5116 67.4886L1.15398e-05 67.4886Z" fill="#FFCF2D"/>
</g>
</svg>
